<svg xmlns="http://www.w3.org/2000/svg" xmlns:xlink="http://www.w3.org/1999/xlink" viewBox="0 0 1243.42 694.88"><defs><style>.a,.o,.p,.q{fill:none;}.b,.c,.d,.e,.f,.g,.h,.i,.j,.k,.l,.m{fill:#002f3b;}.b{opacity:0.5;}.c{opacity:0.2;}.d{opacity:0.03;}.e{opacity:0.1;}.f{opacity:0.6;}.g{opacity:0.7;}.h{opacity:0.4;}.i{opacity:0.8;}.j{opacity:0.9;}.k{opacity:0.3;}.l{opacity:0.02;}.m{opacity:0.01;}.n{clip-path:url(#a);}.o,.p,.q{stroke:#002f3b;stroke-linecap:round;stroke-linejoin:round;}.o{stroke-width:0.5px;}.p{stroke-width:0.75px;}</style><clipPath id="a" transform="translate(161.92 -75.29)"><rect class="a" width="1000" height="700"/></clipPath></defs><polygon class="b" points="569.11 85.27 571.43 88.82 566.71 90.29 569.11 85.27"/><polygon class="c" points="618.38 88.6 622.93 100.67 610.9 91.22 618.38 88.6"/><polygon class="d" points="606.35 75.3 598.54 79.32 605.79 84.6 606.35 75.3"/><polygon class="d" points="590.4 65.3 606.35 75.3 588.69 71.94 590.4 65.3"/><polygon class="e" points="556.89 71.1 575.47 64.32 574.4 71.94 556.89 71.1"/><polygon class="f" points="562.9 77.66 556.89 71.1 575.47 64.32 562.9 77.66"/><polygon class="b" points="541.3 88.23 539.68 102.16 549.49 89.91 541.3 88.23"/><polygon class="e" points="551.55 97.27 541.3 88.23 549.49 89.91 551.55 97.27"/><polygon class="e" points="563.06 87.94 569.11 85.27 563.8 83.94 563.06 87.94"/><polygon class="e" points="572.09 78.89 577.42 80.21 569.11 85.27 572.09 78.89"/><polygon class="e" points="566.07 80.21 562.9 77.66 563.8 83.94 566.07 80.21"/><polygon class="e" points="558.54 79.94 566.07 80.21 563.8 83.94 558.54 79.94"/><polygon class="e" points="554.88 84.06 559.72 87.94 549.49 89.91 554.88 84.06"/><polygon class="e" points="556.89 71.1 550.2 76.27 562.9 77.66 556.89 71.1"/><polygon class="f" points="566.71 90.29 563.06 87.94 571.43 88.82 566.71 90.29"/><polygon class="e" points="563.45 100.13 569.59 95.27 570.8 101.94 563.45 100.13"/><polygon class="e" points="554.88 84.06 558.54 79.94 566.07 80.21 554.88 84.06"/><polygon class="e" points="559.72 87.94 563.06 87.94 563.8 83.94 559.72 87.94"/><polygon class="e" points="575.8 83.94 572.09 78.89 577.42 80.21 575.8 83.94"/><polygon class="e" points="566.07 80.21 575.8 83.94 569.11 85.27 566.07 80.21"/><polygon class="e" points="575.76 87.91 571.43 88.82 575.8 83.94 575.76 87.91"/><polygon class="e" points="598.41 86.6 593.56 89.02 601.71 88.6 598.41 86.6"/><polygon class="g" points="600.3 92.6 598.41 86.6 593.56 89.02 600.3 92.6"/><polygon class="h" points="591.92 80.21 594.57 82.71 598.54 79.32 591.92 80.21"/><polygon class="d" points="598.41 86.6 606.35 75.3 605.79 84.6 598.41 86.6"/><polygon class="d" points="606.97 92.6 601.71 88.6 610.9 91.22 606.97 92.6"/><polygon class="d" points="600.3 92.6 602.71 96.11 606.97 92.6 600.3 92.6"/><polygon class="d" points="605.79 84.6 601.71 88.6 606.97 92.6 605.79 84.6"/><polygon class="e" points="589.2 82.71 585.92 79.71 591.92 80.21 589.2 82.71"/><polygon class="e" points="577.42 80.21 584.48 83.27 585.92 79.71 577.42 80.21"/><polygon class="e" points="579.08 86.6 585.92 79.71 577.42 80.21 579.08 86.6"/><polygon class="e" points="572.09 78.89 588.69 71.94 574.4 71.94 572.09 78.89"/><polygon class="e" points="575.47 64.32 590.4 65.3 574.4 71.94 575.47 64.32"/><polygon class="b" points="577.98 109.94 585.96 106.49 592.08 110.94 577.98 109.94"/><polygon class="e" points="577.42 105.12 570.8 101.94 578.34 98.6 577.42 105.12"/><polygon class="e" points="570.03 107.27 577.42 105.12 577.98 109.94 570.03 107.27"/><polygon class="h" points="570.8 101.94 570.03 107.27 577.98 109.94 570.8 101.94"/><polygon class="f" points="594.92 104.72 592.08 110.94 590.44 98.97 594.92 104.72"/><polygon class="e" points="585.96 106.49 594.92 104.72 592.08 110.94 585.96 106.49"/><polygon class="e" points="579.66 91.27 582.71 95.6 578.34 98.6 579.66 91.27"/><polygon class="e" points="575.76 87.91 579.08 86.6 579.66 91.27 575.76 87.91"/><polygon class="i" points="593.56 89.02 589.2 82.71 586.39 86.75 593.56 89.02"/><polygon class="e" points="586.97 92.6 586.39 86.75 589.2 82.71 586.97 92.6"/><polygon class="e" points="590.44 98.97 585.96 106.49 586.18 99.27 590.44 98.97"/><polygon class="g" points="577.98 109.94 586.18 99.27 585.96 106.49 577.98 109.94"/><polygon class="e" points="577.42 105.12 585.96 106.49 577.98 109.94 577.42 105.12"/><polygon class="f" points="578.34 98.6 586.18 99.27 582.71 95.6 578.34 98.6"/><polygon class="e" points="586.97 92.6 586.18 99.27 582.71 95.6 586.97 92.6"/><polygon class="e" points="590.44 98.97 582.71 95.6 586.18 99.27 590.44 98.97"/><polygon class="e" points="586.39 86.75 579.08 86.6 584.48 83.27 586.39 86.75"/><polygon class="e" points="586.97 92.6 579.66 91.27 586.39 86.75 586.97 92.6"/><polygon class="e" points="582.71 95.6 586.18 86.89 579.66 91.27 582.71 95.6"/><polygon class="e" points="574.68 95.93 576.98 91.94 573 91.27 574.68 95.93"/><polygon class="e" points="535.93 109.19 526.73 114.42 536.45 120.6 535.93 109.19"/><polygon class="e" points="529.15 123.58 526.73 114.42 535.93 109.19 529.15 123.58"/><polygon class="e" points="534.29 141.45 539.11 142.21 537.69 135.21 534.29 141.45"/><polygon class="e" points="536.35 125.94 530.22 132.58 537.69 135.21 536.35 125.94"/><polygon class="j" points="539.11 142.21 530.22 132.58 534.29 141.45 539.11 142.21"/><polygon class="e" points="543.43 138.89 539.11 142.21 534.29 141.45 543.43 138.89"/><polygon class="e" points="540.14 126.57 536.35 125.94 536.45 120.6 540.14 126.57"/><polygon class="f" points="537.91 113.94 526.73 114.42 535.93 109.19 537.91 113.94"/><polygon class="e" points="545.31 109.94 535.93 109.19 539.68 102.16 545.31 109.94"/><polygon class="e" points="539.11 142.21 544.48 147.25 543.43 138.89 539.11 142.21"/><polygon class="k" points="615.3 143.8 621.07 141.2 617.45 138.6 615.3 143.8"/><polygon class="f" points="629.14 133.39 621.07 141.2 625.76 140.54 629.14 133.39"/><polygon class="e" points="629.14 109.94 632.86 117.71 624.38 114.01 629.14 109.94"/><polygon class="e" points="631.94 126.3 629.14 133.39 626.34 126.6 631.94 126.3"/><polygon class="e" points="632.86 117.71 631.94 126.3 629.14 109.94 632.86 117.71"/><polygon class="e" points="622.42 121.94 624.38 114.01 632.86 117.71 622.42 121.94"/><polygon class="e" points="626.34 126.6 622.41 122.21 623.6 133.25 626.34 126.6"/><polygon class="e" points="617.45 138.6 623.6 133.25 615.3 143.8 617.45 138.6"/><polygon class="d" points="624.38 107.97 622.93 100.67 616.12 108.71 624.38 107.97"/><polygon class="g" points="629.14 109.94 624.38 107.97 632.86 117.71 629.14 109.94"/><polygon class="b" points="562.57 113.94 570.03 107.27 577.98 109.94 562.57 113.94"/><polygon class="e" points="557.19 110.6 562.57 113.94 570.03 107.27 557.19 110.6"/><polygon class="e" points="565.09 105.22 562.57 113.94 570.03 107.27 565.09 105.22"/><polygon class="e" points="601.28 111.94 592.08 110.94 599.69 108.14 601.28 111.94"/><polygon class="e" points="605.29 113.66 601.28 111.94 604.32 108.96 605.29 113.66"/><polygon class="e" points="594.92 104.72 599.69 108.14 601.28 111.94 594.92 104.72"/><polygon class="e" points="583.83 117.94 590.92 119.64 585.92 122.21 583.83 117.94"/><polygon class="e" points="571.06 118.89 563.48 127.22 573.42 123.71 571.06 118.89"/><polygon class="e" points="568.92 133.71 563.48 127.22 571.06 118.89 568.92 133.71"/><polygon class="e" points="557.51 131.87 557.57 138.27 548.08 140.6 557.51 131.87"/><polygon class="e" points="573.63 138.6 563.6 141.92 568.92 133.71 573.63 138.6"/><polygon class="e" points="557.57 138.27 563.6 141.92 573.63 138.6 557.57 138.27"/><polygon class="e" points="560.41 122.6 557.51 131.87 563.48 127.22 560.41 122.6"/><polygon class="k" points="548.08 140.6 539.11 142.21 544.48 147.25 548.08 140.6"/><polygon class="e" points="548.41 158.6 544.48 147.25 552.84 145.4 548.41 158.6"/><polygon class="e" points="548.08 140.6 557.51 131.87 552.84 145.4 548.08 140.6"/><polygon class="e" points="548.2 133.94 557.57 138.27 548.08 140.6 548.2 133.94"/><polygon class="e" points="543.92 128.38 537.69 135.21 548.2 133.94 543.92 128.38"/><polygon class="e" points="543.43 138.89 543.92 128.38 548.2 133.94 543.43 138.89"/><polygon class="e" points="529.15 123.58 530.22 132.58 537.69 135.21 529.15 123.58"/><polygon class="e" points="550.88 129.46 548.2 133.94 557.57 138.27 550.88 129.46"/><polygon class="e" points="607.13 137.93 617.45 138.6 608.88 133.27 607.13 137.93"/><polygon class="e" points="612.76 154.07 608.88 133.27 607.13 137.93 612.76 154.07"/><polygon class="e" points="615.3 143.8 612.76 154.07 607.13 137.93 615.3 143.8"/><polygon class="e" points="614.05 173.27 612.76 154.07 608.89 167.59 614.05 173.27"/><polygon class="f" points="604.59 151.97 612.76 154.07 614.05 173.27 604.59 151.97"/><polygon class="e" points="546.73 177.27 548.41 158.6 558.02 169.49 546.73 177.27"/><polygon class="e" points="561.89 160.02 546.73 177.27 548.41 158.6 561.89 160.02"/><polygon class="d" points="566.07 149.4 574.47 155.27 572.68 147.25 566.07 149.4"/><polygon class="d" points="561.89 160.02 566.07 149.4 572.68 147.25 561.89 160.02"/><polygon class="b" points="544.48 147.25 561.89 160.02 548.41 158.6 544.48 147.25"/><polygon class="d" points="595.92 155.71 612.76 154.07 604.59 151.97 595.92 155.71"/><polygon class="e" points="596.8 128.29 608.88 133.27 600.52 121.74 596.8 128.29"/><polygon class="f" points="609.63 125.28 596.8 128.29 608.88 133.27 609.63 125.28"/><polygon class="e" points="618.93 130.6 626.34 126.6 623.6 133.25 618.93 130.6"/><polygon class="e" points="548.73 117.97 545.94 123.36 550.72 122.88 548.73 117.97"/><polygon class="d" points="614 119.13 616.12 108.71 619.88 115.27 614 119.13"/><polygon class="d" points="605.29 113.66 619.88 115.27 614 119.13 605.29 113.66"/><polygon class="d" points="618.38 88.6 622.93 100.67 616.12 108.71 618.38 88.6"/><polygon class="d" points="611.82 82.6 610.9 91.22 605.79 84.6 611.82 82.6"/><polygon class="e" points="551.55 97.27 535.93 109.19 545.31 109.94 551.55 97.27"/><polygon class="b" points="557.19 92.64 559.72 87.94 554.88 84.06 557.19 92.64"/><polygon class="d" points="609.63 125.28 605.29 113.66 600.52 121.74 609.63 125.28"/><polygon class="e" points="550.72 122.88 550.88 129.46 560.41 122.6 550.72 122.88"/><polygon class="e" points="563.48 127.22 550.72 122.88 560.41 122.6 563.48 127.22"/><polygon class="d" points="524.15 190.6 506.74 199.68 512.45 208.89 524.15 190.6"/><polygon class="d" points="537.25 185.04 532.94 192.65 540.31 199.94 537.25 185.04"/><polygon class="e" points="620.91 185.04 641 192.99 644.02 206 620.91 185.04"/><polygon class="e" points="614.05 173.27 620.91 185.04 605.43 180.41 614.05 173.27"/><polygon class="d" points="598.21 169.27 595.92 155.71 604.59 151.97 598.21 169.27"/><polygon class="d" points="578.92 175.71 605.43 180.41 598.21 169.27 578.92 175.71"/><polygon class="d" points="579.23 189.72 598.21 169.27 578.92 175.71 579.23 189.72"/><polygon class="e" points="562.02 209.29 581.28 219.27 581.52 206.6 562.02 209.29"/><polygon class="d" points="560.7 200.83 562.02 209.29 581.28 219.27 560.7 200.83"/><polygon class="d" points="579.23 189.72 562.02 209.29 560.7 200.83 579.23 189.72"/><polygon class="d" points="532.94 192.65 560.7 200.83 540.31 199.94 532.94 192.65"/><polygon class="k" points="524.15 190.6 506.74 199.68 540.31 199.94 524.15 190.6"/><polygon class="d" points="537.25 185.04 524.15 190.6 540.31 199.94 537.25 185.04"/><polygon class="d" points="512.45 208.89 532.94 192.65 524.15 190.6 512.45 208.89"/><polygon class="e" points="487.2 202.52 512.45 208.89 506.74 199.68 487.2 202.52"/><polygon class="g" points="446.51 239.78 461.69 218.14 476.76 217.58 446.51 239.78"/><polygon class="e" points="491.08 229.94 461.69 218.14 476.76 217.58 491.08 229.94"/><polygon class="k" points="487.2 202.52 476.76 217.58 461.69 218.14 487.2 202.52"/><polygon class="e" points="468.88 255.27 479.55 262.74 496.78 258.2 468.88 255.27"/><polygon class="e" points="482.77 292.71 496.78 258.2 479.55 262.74 482.77 292.71"/><polygon class="e" points="464.99 283.4 496.78 258.2 482.77 292.71 464.99 283.4"/><polygon class="e" points="446.51 239.78 468.88 255.27 461.69 218.14 446.51 239.78"/><polygon class="d" points="546.73 177.27 537.25 185.04 540.31 199.94 546.73 177.27"/><polygon class="f" points="559.27 184.79 537.25 185.04 546.73 177.27 559.27 184.79"/><polygon class="e" points="560.7 200.83 546.73 177.27 559.27 184.79 560.7 200.83"/><polygon class="d" points="578.92 175.71 559.27 184.79 558.02 169.49 578.92 175.71"/><polygon class="d" points="563.6 141.92 561.89 160.02 566.07 149.4 563.6 141.92"/><polygon class="e" points="584.16 130.17 587.45 138.6 594.15 133.61 584.16 130.17"/><polygon class="e" points="597.92 149.71 598.71 142.84 604.47 146.6 597.92 149.71"/><polygon class="b" points="615.3 143.8 604.59 151.97 612.76 154.07 615.3 143.8"/><polygon class="e" points="510.12 305.06 515.66 295.03 536.57 302.6 510.12 305.06"/><polygon class="e" points="555.75 294.71 570.5 278.33 556.79 272.18 555.75 294.71"/><polygon class="e" points="645.41 300.21 657.64 274.1 654.37 290.7 645.41 300.21"/><polygon class="e" points="601.45 296.75 629.92 301.5 630.68 287.27 601.45 296.75"/><polygon class="e" points="602.93 277.69 601.45 296.75 629.92 301.5 602.93 277.69"/><polygon class="e" points="577.45 287.34 555.75 294.71 556.79 272.18 577.45 287.34"/><polygon class="e" points="546.64 286.75 555.75 294.71 577.45 287.34 546.64 286.75"/><polygon class="e" points="536.57 302.6 555.75 294.71 546.64 286.75 536.57 302.6"/><polygon class="e" points="536.57 302.6 565.05 300.48 555.75 294.71 536.57 302.6"/><polygon class="e" points="630.68 287.27 645.41 300.21 654.37 290.7 630.68 287.27"/><polygon class="e" points="440.89 275.95 439.53 265.09 464.99 283.4 440.89 275.95"/><polygon class="b" points="473.38 317.19 482.77 292.71 460.52 318.46 473.38 317.19"/><polygon class="h" points="446.51 239.78 439.53 265.09 440.89 275.95 446.51 239.78"/><polygon class="h" points="658.1 204.73 683.68 211.75 699.93 232.46 658.1 204.73"/><polygon class="k" points="644.02 206 658.1 204.73 641 192.99 644.02 206"/><polygon class="l" points="671.78 258.14 657.64 274.1 659.96 254.6 671.78 258.14"/><polygon class="e" points="680.12 240.63 671.78 258.14 692.67 261.64 680.12 240.63"/><polygon class="e" points="675.58 269.07 680.12 240.63 671.78 258.14 675.58 269.07"/><polygon class="e" points="670.89 283.83 675.58 269.07 688.36 275.28 670.89 283.83"/><polygon class="f" points="680.93 317.07 670.89 284.66 675.58 269.07 680.93 317.07"/><polygon class="l" points="708.68 258.3 719.85 292.64 692.67 261.64 708.68 258.3"/><polygon class="l" points="688.36 275.28 708.68 258.3 692.67 261.64 688.36 275.28"/><polygon class="h" points="699.93 232.46 708.68 258.3 680.12 240.63 699.93 232.46"/><polygon class="l" points="656.92 242.71 659.96 254.6 680.12 240.63 656.92 242.71"/><polygon class="l" points="662.88 232.1 656.92 242.71 659.96 254.6 662.88 232.1"/><polygon class="e" points="683.68 211.75 662.88 232.1 658.1 204.73 683.68 211.75"/><polygon class="e" points="627.59 219.24 662.88 232.1 683.68 211.75 627.59 219.24"/><polygon class="l" points="638.67 241.67 646.41 255.35 656.92 242.71 638.67 241.67"/><polygon class="e" points="491.08 229.94 506.74 199.68 512.45 208.89 491.08 229.94"/><polygon class="d" points="537.48 231.55 512.45 208.89 510.16 230.19 537.48 231.55"/><polygon class="d" points="562.02 209.29 537.48 231.55 510.16 230.19 562.02 209.29"/><polygon class="e" points="587.91 257.27 611.08 249.88 612.26 265.1 587.91 257.27"/><polygon class="l" points="621.94 234.3 611.08 249.88 638.67 241.67 621.94 234.3"/><polygon class="e" points="577.45 287.34 589.47 270.56 589.92 283.76 577.45 287.34"/><polygon class="e" points="482.77 292.71 491.93 309.33 510.12 305.06 482.77 292.71"/><polygon class="e" points="498.71 286.23 491.93 309.33 482.77 292.71 498.71 286.23"/><polygon class="m" points="417.14 328.24 426.6 303.15 447.93 299.42 417.14 328.24"/><polygon class="m" points="442.98 369.98 463.1 342.19 428.46 346.08 442.98 369.98"/><polygon class="m" points="460.52 318.46 463.1 342.19 442.98 369.98 460.52 318.46"/><polygon class="m" points="447.93 299.42 426.6 303.15 460.52 318.46 447.93 299.42"/><polygon class="m" points="440.89 275.95 426.6 303.15 447.93 299.42 440.89 275.95"/><polygon class="m" points="464.99 283.4 426.6 303.15 440.89 275.95 464.99 283.4"/><polygon class="e" points="468.88 255.27 440.89 275.95 464.99 283.4 468.88 255.27"/><polygon class="l" points="707.96 315.04 670.89 284.66 680.93 317.07 707.96 315.04"/><polygon class="l" points="719.85 292.64 707.96 315.04 680.93 317.07 719.85 292.64"/><polygon class="l" points="707.29 359.1 716.42 388.67 746.11 381.88 707.29 359.1"/><polygon class="l" points="733.08 318.44 716.42 388.67 707.29 359.1 733.08 318.44"/><polygon class="e" points="774.58 381.6 780.86 398.8 746.11 381.88 774.58 381.6"/><polygon class="k" points="761.33 351.73 774.58 381.6 739.34 353.89 761.33 351.73"/><polygon class="e" points="716.42 388.67 739.34 353.89 761.33 351.73 716.42 388.67"/><polygon class="l" points="707.29 359.1 733.08 318.44 739.34 353.89 707.29 359.1"/><polygon class="l" points="719.85 292.64 733.08 318.44 707.96 315.04 719.85 292.64"/><polygon class="d" points="763.81 449.71 785.85 485.69 778.9 437.62 763.81 449.71"/><polygon class="d" points="806.67 487.74 763.81 449.71 785.85 485.69 806.67 487.74"/><polygon class="d" points="780.86 398.8 778.9 437.62 794.23 437.35 780.86 398.8"/><polygon class="e" points="786.65 525.31 793.16 526.71 799.4 508.99 786.65 525.31"/><polygon class="e" points="788.73 498.35 799.4 508.99 793.16 526.71 788.73 498.35"/><polygon class="f" points="818.87 475.63 836.52 494.71 806.67 487.74 818.87 475.63"/><polygon class="e" points="861.1 538.2 851.42 537.84 858.4 530.92 861.1 538.2"/><polygon class="e" points="836.52 494.71 844.48 514.31 830.57 518.65 836.52 494.71"/><polygon class="e" points="858.4 530.92 852.92 522.38 843.68 525.76 858.4 530.92"/><polygon class="g" points="818.87 552.27 825.01 555.31 824.92 543.87 818.87 552.27"/><polygon class="e" points="817.58 544.38 818.87 552.27 825.01 555.31 817.58 544.38"/><polygon class="e" points="832.49 537.24 840.39 536.6 838.84 541.92 832.49 537.24"/><polygon class="e" points="851.42 537.84 852.92 522.38 858.4 530.92 851.42 537.84"/><polygon class="e" points="805.58 528.38 817.58 544.38 817.17 514.62 805.58 528.38"/><polygon class="e" points="799.4 508.99 817.17 514.62 808.48 500.5 799.4 508.99"/><polygon class="c" points="805.58 528.38 799.4 508.99 808.48 500.5 805.58 528.38"/><polygon class="e" points="823.94 525.24 805.58 528.38 817.17 514.62 823.94 525.24"/><polygon class="e" points="837.27 528.78 830.57 518.65 823.94 525.24 837.27 528.78"/><polygon class="e" points="832.49 537.24 830.57 518.65 823.94 525.24 832.49 537.24"/><polygon class="e" points="844.48 514.31 852.92 522.38 843.68 525.76 844.48 514.31"/><polygon class="e" points="818.87 475.63 808.48 500.5 817.17 514.62 818.87 475.63"/><polygon class="e" points="788.73 498.35 786.04 486.04 808.48 500.5 788.73 498.35"/><polygon class="e" points="836.52 494.71 808.48 500.5 844.48 514.31 836.52 494.71"/><polygon class="l" points="393.77 366.77 405.65 351.73 428.46 346.08 393.77 366.77"/><polygon class="m" points="417.14 328.24 428.46 346.08 463.1 342.19 417.14 328.24"/><polygon class="k" points="442.98 369.98 438.88 396.1 411.22 408.19 442.98 369.98"/><polygon class="m" points="393.77 366.77 411.22 408.19 438.88 396.1 393.77 366.77"/><polygon class="l" points="374.13 415.54 381.98 389.68 411.22 408.19 374.13 415.54"/><polygon class="d" points="384.9 476.16 412.26 432.12 383.35 446.62 384.9 476.16"/><polygon class="m" points="438.88 396.1 412.26 432.12 411.22 408.19 438.88 396.1"/><polygon class="d" points="348.18 477.83 356.46 465.98 384.9 476.16 348.18 477.83"/><polygon class="d" points="378.1 492.99 356.46 465.98 384.9 476.16 378.1 492.99"/><polygon class="e" points="366.96 440.93 356.46 465.98 383.35 446.62 366.96 440.93"/><polygon class="l" points="374.13 415.54 366.96 440.93 411.22 408.19 374.13 415.54"/><polygon class="e" points="372.17 535.36 373.49 529.87 366.54 540.98 372.17 535.36"/><polygon class="f" points="362.47 528.5 366.54 540.98 372.17 535.36 362.47 528.5"/><polygon class="e" points="379.46 509.28 374.42 522.22 364.65 517.1 379.46 509.28"/><polygon class="f" points="378.1 492.99 379.46 509.28 374.42 522.22 378.1 492.99"/><polygon class="e" points="373.49 529.87 374.42 522.22 362.47 528.5 373.49 529.87"/><polygon class="e" points="323.03 553.51 327.03 561.5 334.53 552.48 323.03 553.51"/><polygon class="e" points="325.38 543.79 323.03 553.51 327.03 561.5 325.38 543.79"/><polygon class="e" points="310.88 528.88 313.26 540.3 319.26 531.05 310.88 528.88"/><polygon class="e" points="314.72 519.88 322.57 508.22 329.92 520.09 314.72 519.88"/><polygon class="e" points="310.88 528.88 314.72 519.88 322.57 508.22 310.88 528.88"/><polygon class="e" points="319.26 531.05 322.57 508.22 329.92 520.09 319.26 531.05"/><polygon class="e" points="310.88 528.88 329.92 520.09 319.26 531.05 310.88 528.88"/><polygon class="e" points="325.38 543.79 329.92 520.09 334.53 535.1 325.38 543.79"/><polygon class="e" points="345.89 549 348.84 547.63 342.27 544.99 345.89 549"/><polygon class="e" points="342.27 538.2 342.27 544.99 345.89 549 342.27 538.2"/><polygon class="e" points="358.32 533.04 359.34 524.67 362.47 528.5 358.32 533.04"/><polygon class="e" points="351.81 536.31 342.27 544.99 348.84 547.63 351.81 536.31"/><polygon class="e" points="347.29 523.48 351.81 536.31 359.34 524.67 347.29 523.48"/><polygon class="e" points="334.53 535.1 351.81 536.31 342.27 538.2 334.53 535.1"/><polygon class="e" points="334.53 552.48 342.27 544.99 325.31 543.68 334.53 552.48"/><polygon class="e" points="334.53 535.1 334.53 552.48 325.31 543.68 334.53 535.1"/><polygon class="e" points="335.97 487.67 326.52 502.94 347.53 493.91 335.97 487.67"/><polygon class="f" points="337.27 510.69 335.97 487.67 326.52 502.94 337.27 510.69"/><polygon class="e" points="322.57 508.22 326.52 502.94 337.27 510.69 322.57 508.22"/><polygon class="e" points="329.92 520.09 337.27 510.69 325.31 543.68 329.92 520.09"/><polygon class="d" points="347.53 493.91 384.9 476.16 378.1 492.99 347.53 493.91"/><polygon class="e" points="348.18 477.83 335.97 487.67 337.27 510.69 348.18 477.83"/><polygon class="e" points="355.16 511.85 350.46 508.22 337.27 510.69 355.16 511.85"/><polygon class="e" points="359.34 524.67 355.16 511.85 351.81 536.31 359.34 524.67"/><polygon class="e" points="347.29 523.48 329.92 520.09 337.27 510.69 347.29 523.48"/><polygon class="e" points="306.23 539.63 313.26 540.3 319.26 531.05 306.23 539.63"/><polygon class="b" points="310.88 528.88 306.23 539.63 319.26 531.05 310.88 528.88"/><polygon class="e" points="347.29 523.48 351.81 536.31 358.32 533.04 347.29 523.48"/><polygon class="e" points="668.62 296.59 664.07 326.36 634.4 329.26 668.62 296.59"/><polygon class="e" points="654.37 290.7 664.07 326.36 668.62 296.59 654.37 290.7"/><polygon class="e" points="495.93 326.71 502.62 354.69 516.4 369.1 495.93 326.71"/><polygon class="e" points="530.51 363.1 502.62 354.69 516.4 369.1 530.51 363.1"/><polygon class="h" points="515.2 333.19 495.93 326.71 502.62 354.69 515.2 333.19"/><polygon class="d" points="654.12 363.07 652.73 390.51 622.88 397.1 654.12 363.07"/><polygon class="d" points="641 352.09 654.12 363.07 652.73 390.51 641 352.09"/><polygon class="d" points="664.07 326.36 641 352.09 654.12 363.07 664.07 326.36"/><polygon class="l" points="506.9 396.1 504.79 432.51 521.43 419.52 506.9 396.1"/><polygon class="l" points="506.9 396.1 502.62 354.69 530.51 363.1 506.9 396.1"/><polygon class="l" points="516.4 369.1 506.9 396.1 541.74 386.87 516.4 369.1"/><polygon class="d" points="641 352.09 634.4 329.26 597.28 331.9 641 352.09"/><polygon class="e" points="601.07 381.03 578.62 371.41 594.81 360.8 601.07 381.03"/><polygon class="e" points="578.81 348.61 594.81 360.8 601.07 381.03 578.81 348.61"/><polygon class="e" points="535.73 346.31 516.4 369.1 530.51 363.1 535.73 346.31"/><polygon class="e" points="578.81 348.61 535.73 346.31 564.26 338.91 578.81 348.61"/><polygon class="e" points="536.49 331.47 535.73 346.31 515.2 333.19 536.49 331.47"/><polygon class="e" points="515.66 295.03 536.57 302.6 536.49 331.47 515.66 295.03"/><polygon class="c" points="652.73 390.51 658.84 422.23 641.92 437.53 652.73 390.51"/><polygon class="d" points="618.87 431.58 641.92 437.53 658.84 422.23 618.87 431.58"/><polygon class="d" points="542.87 481.08 565.76 516.71 576.15 500.69 542.87 481.08"/><polygon class="l" points="504.79 432.51 495.83 474.06 516.29 461.78 504.79 432.51"/><polygon class="d" points="516.67 501.46 576.15 500.69 542.87 481.08 516.67 501.46"/><polygon class="l" points="666.36 449.03 674.2 484.1 641.07 491.1 666.36 449.03"/><polygon class="d" points="641.92 437.53 666.36 449.03 674.2 484.1 641.92 437.53"/><polygon class="l" points="658.84 422.23 666.36 449.03 641.07 491.1 658.84 422.23"/><polygon class="l" points="622.8 464.75 608.23 494.37 641.07 491.1 622.8 464.75"/><polygon class="e" points="582.23 538.2 592.98 541.01 595.46 524.1 582.23 538.2"/><polygon class="d" points="565.76 516.71 582.23 538.2 595.46 524.1 565.76 516.71"/><polygon class="l" points="641.07 491.1 626.37 502.71 622.8 464.75 641.07 491.1"/><polygon class="d" points="563.73 432.64 579.56 451.1 597.23 428.1 563.73 432.64"/><polygon class="d" points="618.87 431.58 622.88 397.1 641.92 437.53 618.87 431.58"/><polygon class="d" points="572.68 401.77 563.73 432.64 579.56 451.1 572.68 401.77"/><polygon class="l" points="521.43 419.52 563.73 432.64 572.68 401.77 521.43 419.52"/><polygon class="l" points="541.74 386.87 521.43 419.52 563.73 432.64 541.74 386.87"/><polygon class="d" points="597.23 428.1 618.87 431.58 579.56 451.1 597.23 428.1"/><polygon class="d" points="543.73 465.76 566.73 467.85 542.87 481.08 543.73 465.76"/><polygon class="d" points="563.73 432.64 566.73 467.85 542.87 481.08 563.73 432.64"/><polygon class="d" points="579.56 451.1 566.73 467.85 598.75 471.26 579.56 451.1"/><polygon class="l" points="641.07 491.1 598.75 471.26 622.8 464.75 641.07 491.1"/><polygon class="l" points="495.83 474.06 504.79 432.51 516.67 501.46 495.83 474.06"/><polygon class="e" points="543.73 465.76 516.29 461.78 495.83 474.06 543.73 465.76"/><polygon class="l" points="676.5 517.34 676.66 566.49 651.76 558.67 676.5 517.34"/><polygon class="e" points="634.09 579.15 589.23 576.44 603.47 591.21 634.09 579.15"/><polygon class="e" points="632.26 528.63 608.23 494.37 626.37 502.71 632.26 528.63"/><polygon class="l" points="676.66 566.49 651.76 558.67 632.26 528.63 676.66 566.49"/><polygon class="l" points="634.09 579.15 651.76 558.67 652.88 601.27 634.09 579.15"/><polygon class="l" points="672.73 593.42 676.66 566.49 652.88 601.27 672.73 593.42"/><polygon class="d" points="496.22 576.88 500.87 614.87 520.59 588.26 496.22 576.88"/><polygon class="e" points="490.85 511.62 495.58 550.4 514.71 545.13 490.85 511.62"/><polygon class="k" points="495.83 474.06 490.85 511.62 516.29 461.78 495.83 474.06"/><polygon class="d" points="556.91 583.97 559.86 608.01 581.5 617.57 556.91 583.97"/><polygon class="l" points="674.2 484.1 676.5 517.34 641.07 491.1 674.2 484.1"/><polygon class="l" points="632.26 528.63 674.2 484.1 676.5 517.34 632.26 528.63"/><polygon class="b" points="785.85 512.18 793.16 526.71 786.65 525.31 785.85 512.18"/><polygon class="e" points="788.73 498.35 785.85 512.18 799.4 508.99 788.73 498.35"/><polygon class="e" points="806.67 487.74 788.73 498.35 786.04 486.04 806.67 487.74"/><polygon class="e" points="857.13 544.38 858.4 530.92 861.1 538.2 857.13 544.38"/><polygon class="g" points="851.42 537.84 857.13 544.38 861.1 538.2 851.42 537.84"/><polygon class="m" points="393.77 366.77 381.98 389.68 442.98 369.98 393.77 366.77"/><polygon class="e" points="578.57 120.74 583.83 117.94 571.06 118.89 578.57 120.74"/><polygon class="b" points="575.22 129.51 563.48 127.22 573.42 123.71 575.22 129.51"/><polygon class="e" points="550.65 109.94 539.68 102.16 551.55 97.27 550.65 109.94"/><polygon class="e" points="593.82 94.94 593.56 89.02 600.3 92.6 593.82 94.94"/><polygon class="e" points="557.19 92.64 551.55 97.27 563.45 100.13 557.19 92.64"/><polygon class="i" points="611.82 82.6 618.38 88.6 605.79 84.6 611.82 82.6"/><polygon class="d" points="606.35 75.3 611.82 82.6 598.54 79.32 606.35 75.3"/><polygon class="e" points="562.57 113.94 560.41 122.6 571.06 118.89 562.57 113.94"/><polygon class="e" points="618.93 130.6 609.63 125.28 608.88 133.27 618.93 130.6"/><polygon class="h" points="604.59 151.97 598.71 142.84 604.47 146.6 604.59 151.97"/><polygon class="e" points="607.13 137.93 604.47 146.6 617.45 138.6 607.13 137.93"/><polygon class="e" points="598.71 142.84 594.15 133.61 607.13 137.93 598.71 142.84"/><polygon class="e" points="596.8 128.29 594.15 133.61 598.71 142.84 596.8 128.29"/><polygon class="h" points="590.4 65.3 575.47 64.32 588.69 71.94 590.4 65.3"/><polygon class="d" points="574.47 155.27 558.02 169.49 559.27 184.79 574.47 155.27"/><polygon class="d" points="561.89 160.02 578.92 175.71 574.47 155.27 561.89 160.02"/><polygon class="d" points="589.67 145.21 590.4 151.64 597.92 149.71 589.67 145.21"/><g class="n"><line class="o" x1="517.41" y1="284.76" x2="575.47" y2="64.32"/><line class="o" x1="836.4" y1="494.71" x2="944.54" y2="670.3"/><line class="o" x1="808.09" y1="460.52" x2="675.91" y2="661.71"/><line class="o" x1="335.93" y1="487.74" x2="224.69" y2="678.21"/><line class="o" x1="461.69" y1="218.14" x2="438.88" y2="396.1"/><line class="o" x1="459.24" y1="383.57" x2="401.97" y2="631.98"/><line class="p" x1="541.74" y1="386.87" x2="633.4" y2="166.66"/><line class="q" x1="522.69" y1="135.85" x2="459.24" y2="383.57"/><line class="o" x1="659.93" y1="154.34" x2="633.4" y2="166.66"/><line class="o" x1="659.93" y1="154.34" x2="739.33" y2="353.89"/><line class="p" x1="627.59" y1="219.24" x2="890.13" y2="464.8"/><line class="q" x1="537.42" y1="231.19" x2="309.2" y2="403.92"/><line class="o" x1="0.25" y1="586.37" x2="309.2" y2="403.92"/><line class="q" x1="890.13" y1="464.8" x2="1242.92" y2="694.38"/><line class="o" x1="437.35" y1="558.99" x2="461.69" y2="218.14"/><line class="o" x1="459.17" y1="383.86" x2="6.42" y2="536.65"/><line class="o" x1="597.28" y1="331.9" x2="730.78" y2="501.22"/><line class="o" x1="890.13" y1="464.8" x2="597.28" y2="331.9"/><line class="o" x1="730.78" y1="501.22" x2="633.4" y2="166.66"/><line class="o" x1="730.78" y1="501.22" x2="1145.79" y2="675.71"/><line class="o" x1="258.14" y1="525.61" x2="548.41" y2="158.6"/><line class="o" x1="459.17" y1="383.86" x2="730.78" y2="501.22"/><line class="o" x1="436.84" y1="558.99" x2="716.42" y2="388.67"/><line class="o" x1="836.4" y1="495.08" x2="699.93" y2="232.46"/><line class="o" x1="633.4" y1="166.66" x2="699.63" y2="232.19"/><line class="o" x1="518.8" y1="181.63" x2="633.4" y2="166.66"/><line class="o" x1="518.8" y1="181.63" x2="522.69" y2="135.85"/><line class="o" x1="518.8" y1="181.63" x2="659.93" y2="154.34"/><line class="o" x1="518.8" y1="181.63" x2="517.41" y2="284.76"/><line class="o" x1="518.8" y1="181.63" x2="541.39" y2="87.97"/><line class="o" x1="522.69" y1="135.85" x2="590.25" y2="65.37"/><line class="p" x1="659.85" y1="154.24" x2="522.69" y2="135.85"/><line class="o" x1="633.51" y1="166.45" x2="617.68" y2="88.6"/><line class="p" x1="522.69" y1="135.85" x2="462" y2="218.27"/><line class="o" x1="462" y1="218.27" x2="518.8" y2="181.63"/><line class="q" x1="258.14" y1="525.61" x2="715.96" y2="388.95"/><line class="o" x1="258.14" y1="525.61" x2="675.91" y2="661.71"/><line class="o" x1="890.13" y1="464.8" x2="730.78" y2="501.22"/><line class="o" x1="6.42" y1="536.65" x2="258.14" y2="525.61"/><line class="o" x1="309.2" y1="403.92" x2="258.14" y2="525.61"/><line class="o" x1="438.04" y1="558.67" x2="309.2" y2="403.92"/><line class="q" x1="438.04" y1="558.67" x2="224.69" y2="678.21"/><line class="o" x1="258.14" y1="525.61" x2="224.69" y2="678.21"/><line class="o" x1="890.01" y1="464.75" x2="944.54" y2="670.3"/><line class="o" x1="675.91" y1="661.71" x2="730.78" y2="500.24"/><line class="q" x1="730.78" y1="501.22" x2="774.49" y2="381.53"/><line class="q" x1="6.42" y1="536.65" x2="309.2" y2="403.92"/><line class="o" x1="309.2" y1="403.92" x2="492.35" y2="309.33"/><line class="o" x1="0.25" y1="586.37" x2="459.17" y2="383.86"/><line class="o" x1="401.97" y1="631.98" x2="461.43" y2="218.2"/><line class="o" x1="944.54" y1="670.3" x2="699.63" y2="232.19"/><line class="o" x1="1242.92" y1="694.38" x2="761.33" y2="351.73"/><line class="q" x1="459.17" y1="383.86" x2="660.53" y2="154.24"/><line class="o" x1="459.17" y1="383.86" x2="675.91" y2="661.71"/><line class="o" x1="716.42" y1="388.67" x2="461.43" y2="218.2"/><line class="o" x1="224.69" y1="678.21" x2="309.2" y2="403.92"/><line class="o" x1="309.2" y1="403.92" x2="459.17" y2="383.86"/><line class="o" x1="944.54" y1="670.3" x2="717.44" y2="388.67"/><polygon class="o" points="707.73 182.96 690.86 193.5 719.91 202.94 707.73 182.96"/><polygon class="o" points="718.84 184.14 690.86 193.5 707.73 182.96 718.84 184.14"/><polygon class="o" points="698.52 122.12 700.45 132.82 681.99 136.53 698.52 122.12"/><polygon class="o" points="742.42 245 743.29 263.1 763.11 260.87 742.42 245"/><polygon class="o" points="721.3 208.26 719.91 202.94 729.51 203.8 721.3 208.26"/><polygon class="o" points="628.94 78.04 637 88.62 643.32 80.78 628.94 78.04"/><polygon class="o" points="460.47 121.88 466.25 137.12 476.21 119.93 460.47 121.88"/><polygon class="o" points="459.3 138.33 466.25 137.12 476.21 119.93 459.3 138.33"/><polygon class="o" points="469.84 29.05 469.9 37 480.06 29.05 469.84 29.05"/><polygon class="o" points="491.94 86.68 488.85 104.26 479.55 100.29 491.94 86.68"/><polygon class="o" points="480.88 91.16 488.85 104.26 491.94 86.68 480.88 91.16"/><polygon class="o" points="449.04 110.96 460.47 121.88 465.26 108.06 449.04 110.96"/><polygon class="o" points="256.73 212.62 254.23 218.97 262.34 219.86 256.73 212.62"/><polygon class="o" points="419.32 280.47 412.75 287.01 409.7 272.75 419.32 280.47"/><polygon class="o" points="398.39 297.74 402.11 309.63 412.75 287.01 398.39 297.74"/><polygon class="o" points="337.65 252.94 325.63 289.66 344.52 276.44 337.65 252.94"/><polygon class="o" points="296.01 317.07 305.58 305.98 301.66 330.36 296.01 317.07"/><polygon class="o" points="315.71 320.02 296.01 317.07 305.58 305.98 315.71 320.02"/><polygon class="o" points="258.26 304.25 264.33 298.29 264.15 309.02 258.26 304.25"/><polygon class="o" points="307.98 269.05 325.63 289.66 344.52 276.44 307.98 269.05"/><polygon class="o" points="321.2 242.64 328.89 234.39 333.05 240.29 321.2 242.64"/><polygon class="o" points="167.02 387.89 179.29 384.38 173.53 399.65 167.02 387.89"/><polygon class="o" points="631.48 41.96 623.36 19.43 640.34 33.78 631.48 41.96"/><polygon class="o" points="609.49 34.54 623.36 19.43 640.34 33.78 609.49 34.54"/><polygon class="o" points="600.31 36.63 591.46 55.2 611.47 52.78 600.31 36.63"/><polygon class="o" points="609.49 34.54 591.46 55.2 600.31 36.63 609.49 34.54"/><polygon class="o" points="590.58 0.25 591.95 7.22 601.73 1.59 590.58 0.25"/><polygon class="o" points="677.89 116.71 681.99 136.53 700.45 132.82 677.89 116.71"/><polygon class="o" points="749.5 105.14 730.77 111.66 734.57 98.6 749.5 105.14"/><polygon class="o" points="687.54 105.23 677.89 116.71 681.99 136.53 687.54 105.23"/><polygon class="o" points="698.84 76.47 694.4 70.3 692.26 77.66 698.84 76.47"/><polygon class="o" points="637.94 141.73 659.93 154.34 671.4 130.83 637.94 141.73"/><polygon class="o" points="622.93 100.67 643.32 80.78 628.94 78.04 622.93 100.67"/><polygon class="o" points="671.4 130.83 681.99 136.53 700.45 132.82 671.4 130.83"/><polygon class="o" points="622.67 63.57 628.81 63.42 628.94 78.04 622.67 63.57"/><polygon class="o" points="400.98 141.27 401.53 146.4 406.35 145.71 400.98 141.27"/></g></svg>