<svg width="100" height="100" viewBox="0 0 100 100" fill="none" xmlns="http://www.w3.org/2000/svg">
<g clip-path="url(#clip0)">
<rect width="87" height="100" transform="translate(6)" fill="white"/>
<path opacity="0.4" d="M91.8621 46.9418L53.0228 1.62929C52.5852 1.11869 52.0434 0.708999 51.4341 0.428163C50.8248 0.147328 50.1625 0.00195313 49.4923 0.00195312C48.8221 0.00195313 48.1598 0.147328 47.5505 0.428163C46.9412 0.708999 46.3993 1.11869 45.9618 1.62929L7.12251 46.9418C6.38919 47.7893 5.98529 48.8749 5.98529 49.9984C5.98529 51.1219 6.38919 52.2075 7.12251 53.0551L45.9618 98.3676C46.3993 98.8782 46.9412 99.2879 47.5505 99.5687C48.1598 99.8495 48.8221 99.9949 49.4923 99.9949C50.1625 99.9949 50.8248 99.8495 51.4341 99.5687C52.0434 99.2879 52.5852 98.8782 53.0228 98.3676L91.8621 53.0551C92.5954 52.2075 92.9993 51.1219 92.9993 49.9984C92.9993 48.8749 92.5954 47.7893 91.8621 46.9418V46.9418ZM73.5979 52.0199L51.8673 77.0492C51.5715 77.3877 51.2074 77.6588 50.7992 77.8445C50.391 78.0302 49.9481 78.1263 49.5001 78.1263C49.052 78.1263 48.6091 78.0302 48.2009 77.8445C47.7927 77.6588 47.4286 77.3877 47.1328 77.0492L25.4022 52.0277C24.9131 51.4669 24.6434 50.7464 24.6434 50.0004C24.6434 49.2544 24.9131 48.5338 25.4022 47.973L47.1328 22.9516C47.4286 22.6131 47.7927 22.342 48.2009 22.1563C48.6091 21.9705 49.052 21.8745 49.5001 21.8745C49.9481 21.8745 50.391 21.9705 50.7992 22.1563C51.2074 22.342 51.5715 22.6131 51.8673 22.9516L73.5979 47.973C74.087 48.5338 74.3568 49.2544 74.3568 50.0004C74.3568 50.7464 74.087 51.4669 73.5979 52.0277V52.0199Z" fill="#667EEA"/>
<path d="M73.5978 47.9726C74.087 48.5334 74.3567 49.2539 74.3567 49.9999C74.3567 50.7459 74.087 51.4665 73.5978 52.0273L51.8673 77.0488C51.5715 77.3872 51.2073 77.6583 50.7991 77.8441C50.3909 78.0298 49.948 78.1259 49.5 78.1259C49.052 78.1259 48.6091 78.0298 48.2009 77.8441C47.7927 77.6583 47.4285 77.3872 47.1328 77.0488L25.4022 52.0273C24.913 51.4665 24.6433 50.7459 24.6433 49.9999C24.6433 49.2539 24.913 48.5334 25.4022 47.9726L47.1328 22.9511C47.4285 22.6127 47.7927 22.3416 48.2009 22.1558C48.6091 21.9701 49.052 21.874 49.5 21.874C49.948 21.874 50.3909 21.9701 50.7991 22.1558C51.2073 22.3416 51.5715 22.6127 51.8673 22.9511L73.5978 47.9726Z" fill="#667EEA"/>
</g>
<defs>
<clipPath id="clip0">
<rect width="87" height="100" fill="white" transform="translate(6)"/>
</clipPath>
</defs>
</svg>
